# Wavefront OBJ file automatically generated by Tiled2Unity

# Vertices (Count = 121)
v 0 -32 0
v -32 -32 0
v -32 0 0
v 0 0 0
v -64 -32 0
v -64 0 0
v -96 -32 0
v -96 0 0
v -128 -32 0
v -128 0 0
v -160 -32 0
v -160 0 0
v -192 -32 0
v -192 0 0
v -224 -32 0
v -224 0 0
v -256 -32 0
v -256 0 0
v -288 -32 0
v -288 0 0
v -320 -32 0
v -320 0 0
v 0 -64 0
v -32 -64 0
v -64 -64 0
v -96 -64 0
v -128 -64 0
v -160 -64 0
v -192 -64 0
v -224 -64 0
v -256 -64 0
v -288 -64 0
v -320 -64 0
v 0 -96 0
v -32 -96 0
v -64 -96 0
v -96 -96 0
v -128 -96 0
v -160 -96 0
v -192 -96 0
v -224 -96 0
v -256 -96 0
v -288 -96 0
v -320 -96 0
v 0 -128 0
v -32 -128 0
v -64 -128 0
v -96 -128 0
v -128 -128 0
v -160 -128 0
v -192 -128 0
v -224 -128 0
v -256 -128 0
v -288 -128 0
v -320 -128 0
v 0 -160 0
v -32 -160 0
v -64 -160 0
v -96 -160 0
v -128 -160 0
v -160 -160 0
v -192 -160 0
v -224 -160 0
v -256 -160 0
v -288 -160 0
v -320 -160 0
v 0 -192 0
v -32 -192 0
v -64 -192 0
v -96 -192 0
v -128 -192 0
v -160 -192 0
v -192 -192 0
v -224 -192 0
v -256 -192 0
v -288 -192 0
v -320 -192 0
v 0 -224 0
v -32 -224 0
v -64 -224 0
v -96 -224 0
v -128 -224 0
v -160 -224 0
v -192 -224 0
v -224 -224 0
v -256 -224 0
v -288 -224 0
v -320 -224 0
v 0 -256 0
v -32 -256 0
v -64 -256 0
v -96 -256 0
v -128 -256 0
v -160 -256 0
v -192 -256 0
v -224 -256 0
v -256 -256 0
v -288 -256 0
v -320 -256 0
v 0 -288 0
v -32 -288 0
v -64 -288 0
v -96 -288 0
v -128 -288 0
v -160 -288 0
v -192 -288 0
v -224 -288 0
v -256 -288 0
v -288 -288 0
v -320 -288 0
v 0 -320 0
v -32 -320 0
v -64 -320 0
v -96 -320 0
v -128 -320 0
v -160 -320 0
v -192 -320 0
v -224 -320 0
v -256 -320 0
v -288 -320 0
v -320 -320 0

# Texture cooridinates (Count = 16)
vt 0.1208768 0.678514
vt 0.2413874 0.678514
vt 0.2413874 0.8390739
vt 0.1208768 0.8390739
vt 0.1208768 0.196102
vt 0.2413874 0.196102
vt 0.2413874 0.3566619
vt 0.1208768 0.3566619
vt 0.7246504 0.678514
vt 0.845161 0.678514
vt 0.845161 0.8390739
vt 0.7246504 0.8390739
vt 0.7246504 0.196102
vt 0.845161 0.196102
vt 0.845161 0.3566619
vt 0.7246504 0.3566619

# Normal
vn 0 0 -1

# Groups (Count = 1)

g mesh_0001
f 1/1/1 2/2/1 3/3/1 4/4/1
f 2/1/1 5/2/1 6/3/1 3/4/1
f 5/1/1 7/2/1 8/3/1 6/4/1
f 7/1/1 9/2/1 10/3/1 8/4/1
f 9/1/1 11/2/1 12/3/1 10/4/1
f 11/5/1 13/6/1 14/7/1 12/8/1
f 13/5/1 15/6/1 16/7/1 14/8/1
f 15/5/1 17/6/1 18/7/1 16/8/1
f 17/5/1 19/6/1 20/7/1 18/8/1
f 19/5/1 21/6/1 22/7/1 20/8/1
f 23/1/1 24/2/1 2/3/1 1/4/1
f 24/1/1 25/2/1 5/3/1 2/4/1
f 25/1/1 26/2/1 7/3/1 5/4/1
f 26/1/1 27/2/1 9/3/1 7/4/1
f 27/1/1 28/2/1 11/3/1 9/4/1
f 28/5/1 29/6/1 13/7/1 11/8/1
f 29/5/1 30/6/1 15/7/1 13/8/1
f 30/5/1 31/6/1 17/7/1 15/8/1
f 31/5/1 32/6/1 19/7/1 17/8/1
f 32/5/1 33/6/1 21/7/1 19/8/1
f 34/1/1 35/2/1 24/3/1 23/4/1
f 35/1/1 36/2/1 25/3/1 24/4/1
f 36/1/1 37/2/1 26/3/1 25/4/1
f 37/1/1 38/2/1 27/3/1 26/4/1
f 38/1/1 39/2/1 28/3/1 27/4/1
f 39/5/1 40/6/1 29/7/1 28/8/1
f 40/5/1 41/6/1 30/7/1 29/8/1
f 41/5/1 42/6/1 31/7/1 30/8/1
f 42/5/1 43/6/1 32/7/1 31/8/1
f 43/5/1 44/6/1 33/7/1 32/8/1
f 45/1/1 46/2/1 35/3/1 34/4/1
f 46/1/1 47/2/1 36/3/1 35/4/1
f 47/1/1 48/2/1 37/3/1 36/4/1
f 48/1/1 49/2/1 38/3/1 37/4/1
f 49/1/1 50/2/1 39/3/1 38/4/1
f 50/5/1 51/6/1 40/7/1 39/8/1
f 51/5/1 52/6/1 41/7/1 40/8/1
f 52/5/1 53/6/1 42/7/1 41/8/1
f 53/5/1 54/6/1 43/7/1 42/8/1
f 54/5/1 55/6/1 44/7/1 43/8/1
f 56/5/1 57/6/1 46/7/1 45/8/1
f 57/5/1 58/6/1 47/7/1 46/8/1
f 58/5/1 59/6/1 48/7/1 47/8/1
f 59/5/1 60/6/1 49/7/1 48/8/1
f 60/5/1 61/6/1 50/7/1 49/8/1
f 61/5/1 62/6/1 51/7/1 50/8/1
f 62/5/1 63/6/1 52/7/1 51/8/1
f 63/5/1 64/6/1 53/7/1 52/8/1
f 64/5/1 65/6/1 54/7/1 53/8/1
f 65/5/1 66/6/1 55/7/1 54/8/1
f 67/5/1 68/6/1 57/7/1 56/8/1
f 68/5/1 69/6/1 58/7/1 57/8/1
f 69/5/1 70/6/1 59/7/1 58/8/1
f 70/5/1 71/6/1 60/7/1 59/8/1
f 71/5/1 72/6/1 61/7/1 60/8/1
f 72/5/1 73/6/1 62/7/1 61/8/1
f 73/5/1 74/6/1 63/7/1 62/8/1
f 74/5/1 75/6/1 64/7/1 63/8/1
f 75/5/1 76/6/1 65/7/1 64/8/1
f 76/5/1 77/6/1 66/7/1 65/8/1
f 78/5/1 79/6/1 68/7/1 67/8/1
f 79/5/1 80/6/1 69/7/1 68/8/1
f 80/5/1 81/6/1 70/7/1 69/8/1
f 81/5/1 82/6/1 71/7/1 70/8/1
f 82/5/1 83/6/1 72/7/1 71/8/1
f 83/5/1 84/6/1 73/7/1 72/8/1
f 84/5/1 85/6/1 74/7/1 73/8/1
f 85/5/1 86/6/1 75/7/1 74/8/1
f 86/5/1 87/6/1 76/7/1 75/8/1
f 87/5/1 88/6/1 77/7/1 76/8/1
f 89/9/1 90/10/1 79/11/1 78/12/1
f 90/9/1 91/10/1 80/11/1 79/12/1
f 91/9/1 92/10/1 81/11/1 80/12/1
f 92/5/1 93/6/1 82/7/1 81/8/1
f 93/5/1 94/6/1 83/7/1 82/8/1
f 94/5/1 95/6/1 84/7/1 83/8/1
f 95/5/1 96/6/1 85/7/1 84/8/1
f 96/13/1 97/14/1 86/15/1 85/16/1
f 97/13/1 98/14/1 87/15/1 86/16/1
f 98/13/1 99/14/1 88/15/1 87/16/1
f 100/9/1 101/10/1 90/11/1 89/12/1
f 101/9/1 102/10/1 91/11/1 90/12/1
f 102/9/1 103/10/1 92/11/1 91/12/1
f 103/5/1 104/6/1 93/7/1 92/8/1
f 104/5/1 105/6/1 94/7/1 93/8/1
f 105/5/1 106/6/1 95/7/1 94/8/1
f 106/5/1 107/6/1 96/7/1 95/8/1
f 107/13/1 108/14/1 97/15/1 96/16/1
f 108/13/1 109/14/1 98/15/1 97/16/1
f 109/13/1 110/14/1 99/15/1 98/16/1
f 111/9/1 112/10/1 101/11/1 100/12/1
f 112/9/1 113/10/1 102/11/1 101/12/1
f 113/9/1 114/10/1 103/11/1 102/12/1
f 114/5/1 115/6/1 104/7/1 103/8/1
f 115/5/1 116/6/1 105/7/1 104/8/1
f 116/5/1 117/6/1 106/7/1 105/8/1
f 117/5/1 118/6/1 107/7/1 106/8/1
f 118/13/1 119/14/1 108/15/1 107/16/1
f 119/13/1 120/14/1 109/15/1 108/16/1
f 120/13/1 121/14/1 110/15/1 109/16/1

